<svg xmlns:xlink="http://www.w3.org/1999/xlink" xmlns="http://www.w3.org/2000/svg" viewBox="0 0 85.01 85.01" width="85.01"  height="85.01" ><path class="arrow__path" fill="#101010" d="M6.62,0c-1.48,0-2.68,1.19-2.69,2.67l-.08,8.93c0,1.5,1.2,2.71,2.69,2.71h47.52c2.4,0,3.6,2.9,1.9,4.59L74.87,0H6.62Z"></path><path class="arrow__path" fill="#101010" d="M85,2.69c0-1.49-1.2-2.69-2.69-2.69h-7.44l-18.9,18.9-4.1,4.1L.79,74.08c-1.05,1.05-1.05,2.75,0,3.81l6.33,6.33c1.05,1.05,2.75,1.05,3.81,0l55.18-55.18,18.9-18.9V2.69h-.01Z"></path><path class="arrow__path" fill="#101010" d="M66.1,29.04c1.7-1.7,4.59-.49,4.59,1.9v47.52c0,1.5,1.22,2.7,2.71,2.69l8.93-.08c1.48-.01,2.67-1.21,2.67-2.69V10.13l-18.9,18.9h0Z"></path></svg>