<svg width="421" height="86" viewBox="0 0 421 86" fill="none" xmlns="http://www.w3.org/2000/svg">
<path d="M30.5998 84.72H-0.000195026V0.719995H30.5998C56.7598 0.719995 74.1598 17.88 74.1598 42.6C74.1598 67.2 56.7598 84.72 30.5998 84.72ZM17.9998 15.72V69.72H30.5998C46.6798 69.72 55.6798 58.56 55.6798 42.6C55.6798 26.52 46.6798 15.72 30.5998 15.72H17.9998ZM85.0779 84.72V0.719995H141.478V16.2H103.078V35.04H134.278V49.8H103.078V69.24H142.798V84.72H85.0779ZM150.273 57.12L167.913 57.36C168.513 65.52 174.993 71.16 185.313 71.16C193.593 71.16 199.713 67.56 199.713 60.96C199.713 53.88 192.873 52.44 178.833 49.68C164.673 47.04 152.193 42.48 152.193 25.44C152.193 10.56 164.553 -2.38419e-06 183.513 -2.38419e-06C203.313 -2.38419e-06 215.913 10.32 216.153 26.4H198.513C197.673 19.32 192.273 14.4 183.513 14.4C175.833 14.4 170.313 17.64 170.313 24.12C170.313 30.96 176.913 32.4 190.833 35.04C205.233 37.68 217.953 42 217.833 58.92C217.713 74.64 204.753 85.44 185.073 85.44C163.713 85.44 150.393 74.16 150.273 57.12ZM228.633 84.72V0.719995H246.633V84.72H228.633ZM297.459 85.44C273.459 85.44 257.499 68.52 257.499 42.72C257.499 16.92 273.339 -2.38419e-06 299.139 -2.38419e-06C319.419 -2.38419e-06 333.699 12.48 335.859 30.6H317.859C315.699 21.36 308.979 15.24 298.659 15.24C284.619 15.24 275.859 26.52 275.859 42.72C275.859 58.92 284.259 70.2 298.659 70.2C308.259 70.2 317.979 65.16 319.659 53.4V52.32H298.779V38.04H336.339V84.72H323.739L321.939 74.64C317.499 80.52 309.339 85.44 297.459 85.44ZM368.382 84.72H350.742V0.719995H367.062L402.702 53.64V0.719995H420.462V84.72H404.022L368.382 31.8V84.72Z" fill="#1D1D1F"/>
</svg>
