<svg width="564" height="86" viewBox="0 0 564 86" fill="none" xmlns="http://www.w3.org/2000/svg">
<path d="M-0.000195026 84.72V0.719995H56.3998V16.2H17.9998V35.04H49.1998V49.8H17.9998V69.24H57.7198V84.72H-0.000195026ZM86.1945 84.72H68.5545V0.719995H84.8745L120.514 53.64V0.719995H138.274V84.72H121.834L86.1945 31.8V84.72ZM189.178 85.44C165.178 85.44 149.218 68.52 149.218 42.72C149.218 16.92 165.058 -2.38419e-06 190.858 -2.38419e-06C211.138 -2.38419e-06 225.418 12.48 227.578 30.6H209.578C207.418 21.36 200.698 15.24 190.378 15.24C176.338 15.24 167.578 26.52 167.578 42.72C167.578 58.92 175.978 70.2 190.378 70.2C199.978 70.2 209.698 65.16 211.378 53.4V52.32H190.498V38.04H228.058V84.72H215.458L213.658 74.64C209.218 80.52 201.058 85.44 189.178 85.44ZM242.461 84.72V0.719995H260.461V84.72H242.461ZM292.327 84.72H274.687V0.719995H291.007L326.647 53.64V0.719995H344.407V84.72H327.967L292.327 31.8V84.72ZM358.711 84.72V0.719995H415.111V16.2H376.711V35.04H407.911V49.8H376.711V69.24H416.431V84.72H358.711ZM427.265 84.72V0.719995H483.665V16.2H445.265V35.04H476.465V49.8H445.265V69.24H484.985V84.72H427.265ZM495.82 84.72V0.719995H530.02C548.5 0.719995 560.86 11.64 560.86 28.68C560.86 39.48 555.22 48.12 546.46 52.32L563.02 84.72H543.1L528.94 56.52H513.82V84.72H495.82ZM528.58 15.72H513.82V41.52H528.58C537.1 41.52 542.5 36.48 542.5 28.68C542.5 20.76 537.1 15.72 528.58 15.72Z" fill="#1B1B1A"/>
</svg>
