<svg width="12" height="8" viewBox="0 0 12 8" fill="none" xmlns="http://www.w3.org/2000/svg">
<path d="M1.98405 8C1.36538 8 0.874712 7.79734 0.512045 7.392C0.170712 6.98667 4.50611e-05 6.496 4.50611e-05 5.92V5.632C4.50611e-05 5.16267 0.0853784 4.672 0.256045 4.16C0.426712 3.648 0.650712 3.136 0.928045 2.624C1.22671 2.112 1.56804 1.632 1.95204 1.184C2.35738 0.736003 2.78405 0.341337 3.23205 3.8147e-06H4.83205C4.10671 0.640003 3.49871 1.312 3.00805 2.016C2.51738 2.69867 2.19738 3.34934 2.04805 3.968H2.11205C2.70938 3.968 3.16805 4.16 3.48805 4.544C3.80805 4.928 3.96805 5.36534 3.96805 5.856V6.048C3.96805 6.60267 3.78671 7.072 3.42405 7.456C3.06138 7.81867 2.58138 8 1.98405 8ZM8.19205 8C7.57338 8 7.08271 7.79734 6.72005 7.392C6.37871 6.98667 6.20805 6.496 6.20805 5.92V5.632C6.20805 5.16267 6.29338 4.672 6.46405 4.16C6.63471 3.648 6.85871 3.136 7.13605 2.624C7.43471 2.112 7.77605 1.632 8.16005 1.184C8.56538 0.736003 8.99205 0.341337 9.44005 3.8147e-06H11.04C10.3147 0.640003 9.70671 1.312 9.21605 2.016C8.72538 2.69867 8.40538 3.34934 8.25605 3.968H8.32005C8.91738 3.968 9.37605 4.16 9.69605 4.544C10.016 4.928 10.176 5.36534 10.176 5.856V6.048C10.176 6.60267 9.99471 7.072 9.63205 7.456C9.26938 7.81867 8.78938 8 8.19205 8Z" fill="#2C2DFE"/>
</svg>
